<?xml version="1.0" encoding="utf-8"?>
<!-- Generator: Adobe Illustrator 26.0.1, SVG Export Plug-In . SVG Version: 6.00 Build 0)  -->
<svg version="1.1" id="Layer_1" xmlns="http://www.w3.org/2000/svg" xmlns:xlink="http://www.w3.org/1999/xlink" x="0px" y="0px"
	 viewBox="0 0 200 200" style="enable-background:new 0 0 200 200;" xml:space="preserve">
<style type="text/css">
	.st0{display:none;}
	.st1{display:inline;fill:#317E3D;}
	.st2{fill:#317E3D;}
</style>
<g class="st0">
	<path class="st1" d="M94.2,185.1c-2.9-0.4-5.9-0.8-8.8-1.3c-18.2-3.2-33.7-11.6-46.5-24.9c-0.8-0.9-1.7-1.8-2.8-2.9
		c0,1.8,0,3.2,0,4.7c0,1.4,0,2.9,0,4.4c-3.3,0-6.5,0-9.8,0c0-9.8,0-19.7,0-29.6c9.6,0,19.1,0,28.8,0c0,3.2,0,6.4,0,9.8
		c-4.7,0-9.5,0-14.7,0c9.4,12.2,21,20.7,35.1,25.7c14.2,5,28.6,5.5,43.3,1.9c0.8,3.2,1.6,6.3,2.5,9.7c-2.7,0.5-5.3,1.1-7.9,1.6
		c-2.4,0.4-4.9,0.7-7.3,1C102.1,185.1,98.2,185.1,94.2,185.1z"/>
	<path class="st1" d="M185.1,106.1c-0.4,2.9-0.8,5.8-1.3,8.6c-3.4,19-12.3,34.9-26.4,48c-0.4,0.3-0.8,0.6-1,1.3c2.8,0,5.7,0,8.6,0
		c0,3.4,0,6.6,0,10c-9.8,0-19.7,0-29.6,0c0-9.6,0-19.2,0-28.8c3.2,0,6.4,0,9.8,0c0,4.8,0,9.5,0,14.7c12.2-9.4,20.7-21,25.7-35.2
		c5-14.2,5.5-28.6,1.9-43.3c3.2-0.8,6.3-1.6,9.7-2.5c0.5,2.6,1.1,5.3,1.6,7.9c0.4,2.4,0.7,4.9,1,7.3
		C185.1,98.2,185.1,102.1,185.1,106.1z"/>
	<path class="st1" d="M105.3,135c3.2,0,6.4,0,9.7,0c0,3.3,0,6.5,0,9.8c-9.8,0-19.7,0-29.6,0c0-3.2,0-6.4,0-9.8c3.2,0,6.4,0,9.7,0
		c0-10,0-19.8,0-30c-13.3,1-24.5-3.1-32.7-13.9c-5.8-7.6-7.6-16.3-6.9-25.6c0,0,0.1-0.2,0.2-0.2c7.4,0.2,15-0.9,22.3,0.8
		c11.5,2.7,19.6,9.7,24.4,20.5c0.2,0.4,0.3,0.7,0.5,1.1c0,0,0.1,0-0.2-0.1c3.4-2.6,6.4-5.4,9.8-7.5c5.1-3.3,10.9-4.8,17-4.8
		c5.1,0,10.2,0,15.3,0c1,11.4-1.9,21.4-10,29.6c-8.1,8.1-18.1,11-29.5,10.1C105.3,121.7,105.3,128.3,105.3,135z M66,75.4
		c1.5,9.7,11.4,21.5,28.4,19.7C93.8,83.6,80.3,74.2,66,75.4z M105.8,105c14.1,1.3,27.5-8,28.4-19.7C120.8,83.6,107.3,92.9,105.8,105
		z"/>
	<path class="st1" d="M44.4,36.1c-3.3,0-6.2,0-9.2,0c0-3.3,0-6.5,0-9.8c9.8,0,19.7,0,29.6,0c0,9.6,0,19.2,0,28.8c-3.2,0-6.4,0-9.8,0
		c0-4.8,0-9.5,0-14.7c-12.2,9.5-20.7,21.1-25.7,35.2c-5,14.1-5.5,28.5-1.9,43.2c-3.2,0.8-6.3,1.6-9.4,2.5
		C11.8,100.7,13.7,63.3,44.4,36.1z"/>
	<path class="st1" d="M174,64.9c-9.6,0-19.1,0-28.8,0c0-3.3,0-6.5,0-9.8c4.7,0,9.5,0,14.7,0c-9.4-12.2-21-20.7-35.1-25.7
		c-14.2-5-28.6-5.5-43.3-1.9c-0.8-3.2-1.6-6.4-2.5-9.7c15.6-3.9,30.9-3.6,46.1,1.1c15.2,4.7,28.1,13.1,39,25.4c0-3.3,0-6.2,0-9.2
		c3.4,0,6.6,0,9.9,0C174,45.1,174,54.9,174,64.9z"/>
</g>
<g class="st0">
	<path class="st1" d="M150.9,94.5c7-12.2,13.8-23.9,20.9-36.2c7,12.2,13.8,23.9,20.9,36.2c-4.2,0-7.8,0-11.5,0
		c-5.9,0-5.2-0.5-5.2,5.2c0,21.4-7,40.1-22.4,55c-22.8,22.1-49.8,27.6-80,17.9c-0.6-0.2-1.2-0.4-1.8-0.7c-0.2-0.1-0.4-0.3-1.2-1
		c1.9-1.7,3.7-3.5,5.7-4.9c0.7-0.5,2-0.5,2.9-0.3c22.9,6.6,44.1,3,62.8-11.9c18.2-14.5,26.1-34,25.4-57.1c-0.1-1.9-1-2.3-2.6-2.3
		C160.5,94.6,156,94.5,150.9,94.5z"/>
	<path class="st1" d="M129,30.8c-2.2,2-4,3.9-6.1,5.4c-0.7,0.5-2,0.3-3,0c-16.9-4.9-33.3-3.9-49.2,3.5c-25,11.7-40.5,37.9-38.8,65.5
		c0.1,1.9,0.9,2.3,2.6,2.3c4.7-0.1,9.4,0,14.7,0c-7.1,12.2-13.9,24-20.9,36.3c-7-12.2-13.8-23.9-20.9-36.2c3.8,0,7,0,10.3,0
		c1,0,2-0.1,3.1,0c2.2,0.2,2.9-0.7,2.8-2.9c-0.2-9.3,0.6-18.6,3.8-27.3c10.8-29.7,31.8-47.2,63.2-51.8c12.4-1.8,24.5-0.1,36.3,4.3
		C127.3,30,127.8,30.3,129,30.8z"/>
	<path class="st1" d="M96,119.8c-2.7-27.7,10.9-41.7,38-39.1c-6.9,6.9-14,13.9-21.2,21.1c0-2.2,0.1-4.6,0-7c0-0.7-0.6-1.3-1-2
		c-0.4,0.7-0.9,1.4-1.2,2.1c-0.1,0.2-0.1,0.6,0,0.8c1.2,6.7-1.2,11.9-6.6,16C101.1,114,98.9,116.9,96,119.8z"/>
	<path class="st1" d="M106.1,112.5c3.2-3.1,6.8-6,9.6-9.4c3.8-4.8,8.3-6.9,14.4-5.9c0.4,0.1,0.8,0.1,1.1,0c0.7-0.3,1.4-0.8,2.1-1.2
		c-0.7-0.4-1.3-1-2-1c-2.1-0.1-4.2,0-6,0c3.8-3.7,7.7-7.6,11.3-11.1c2.9,27.7-12,39.5-38.3,37.6c1.4-3.5,4.9-6,8.4-6
		c2.2,0,4.4,0.1,6.7-0.1c0.6,0,1.1-0.7,1.6-1.1c-0.5-0.4-1.1-1-1.6-1.1c-2.3-0.1-4.5-0.1-6.8-0.1C106.4,113,106.2,112.8,106.1,112.5
		z"/>
	<path class="st1" d="M63.6,82.9c4,4,7.8,7.9,12,12.1c-2.4,0-4.5-0.1-6.7,0.1c-0.7,0.1-1.4,0.8-2.1,1.2c0.7,0.4,1.3,0.7,2,1
		c0.2,0.1,0.6,0.1,0.8,0c6.5-1.2,11.4,1.2,15.2,6.4c0.9,1.3,2,2.5,3.3,3.3c5.4,3.5,5.7,8.7,5,14.3C71.6,121.2,61.2,106.2,63.6,82.9z
		"/>
	<path class="st1" d="M87.2,102c-7.3-7.3-14.4-14.3-21.6-21.5c11.1-0.4,21.8,0.2,30.6,8.2c1.8,1.6,2.5,3,1.1,5.7
		c-1.7,3.4-2.4,7.3-3.5,11c-0.3,0.9-0.3,1.9-0.5,3.1c-2.6-1.8-4.4-3.7-3.9-7c0.3-2,0.2-4.1,0-6.1c-0.1-0.9-0.8-1.8-1.2-2.7
		c-0.4,0.9-1,1.8-1,2.8C87.1,97.7,87.2,99.8,87.2,102z"/>
</g>
<g class="st0">
	<path class="st1" d="M92.1,49.4c8.5,7,16.4,13.8,22.6,22.3c6.3,8.6,9.4,18.4,11.4,28.8c0.4,0,0.9,0,1.3,0.1
		c1.6-2.8,3.3-5.6,4.9-8.4c0.2,0,0.5,0,0.7,0c0.4,5,1.2,10,1.1,15c-0.1,8.4-0.9,16.7-4.5,24.4c-3.4,7.3-8.5,12.9-16.2,16.1
		c4.8-7.2,7.8-14.8,5.3-24.6c-1,1.6-1.7,2.8-2.5,3.9c-0.3-0.1-0.7-0.1-1-0.2c-0.6-6.4-4.8-10.5-8.4-15c-3.1-3.8-3.9-8.4-3.3-13.3
		c0.1-1.2,0.3-2.4,0.5-4.3c-10.3,7.7-17.7,16.4-19.4,29.2c-0.3-0.1-0.6-0.1-0.9-0.2c-0.8-1.2-1.7-2.5-2.5-3.7
		c-3.8,7.3-0.3,21.5,7.2,29.9c-15.8-4.6-27.6-30.6-21-49.2c1.6,2.1,3.3,4.3,4.9,6.4c0.5-0.4,0.8-0.5,0.9-0.6
		c1.1-8.5,5.2-15.6,11.2-21.5c9.2-9.2,10.7-20.3,8.3-32.4C92.3,51.4,92.2,50.6,92.1,49.4z"/>
	<path class="st1" d="M35.6,139.9c21.8,26.8,48.9,38.1,82.7,27.9c23.1-7,37.8-23.2,45.5-46.8c-2.8,0-5,0-7.1,0
		c-4.4-0.1-6.2-2.8-4.1-6.6c5.3-9.4,10.7-18.7,16.2-28c2-3.3,5.4-3.3,7.4,0c5.5,9.4,11,18.8,16.3,28.3c1.8,3.3,0,6.7-3.6,6.1
		c-6.9-1.1-9.2,2.2-11.5,8.2c-12.6,31.1-43.7,51.3-77.2,49.8c-27-1.2-48.2-13.4-63.1-36.2C36.6,141.7,36.1,140.8,35.6,139.9z"/>
	<path class="st1" d="M163.5,59.4c-21.6-26.6-48.6-38-82.3-27.9c-23.2,7-38,23.2-45.7,46.8c2.7,0,4.8,0,6.9,0c4.7,0.1,6.4,3,4.1,7.1
		c-4.2,7.5-8.6,14.8-12.8,22.3c-1,1.7-2,3.5-3,5.2c-2.3,3.6-5.5,3.5-7.8-0.3c-3.5-5.9-6.9-11.9-10.4-17.9c-1.8-3.1-3.6-6.2-5.3-9.3
		c-2.2-3.9-0.5-7.5,3.8-6.9c6.5,0.9,8.5-2.2,10.9-7.7C35,41,57.9,23.4,90.7,21c31.1-2.3,55.2,10.7,72.2,36.8c0.3,0.5,0.5,1,0.8,1.5
		C163.6,59.3,163.5,59.5,163.5,59.4z"/>
</g>
<g>
	<path class="st2" d="M170.9,119.9c5.5-6.7,11-13.4,16.5-20.1c0.5-0.6,1-1.4,1.6-1.9c0.7-0.5,2-1,2.3-0.7c0.7,0.6,1.3,1.7,1.3,2.6
		c0,0.9-0.5,1.9-1.1,2.6c-6.4,7.9-12.8,15.8-19.3,23.6c-3.1,3.7-6.8,3.6-10.2,0c-7.1-7.6-14.2-15.2-21.3-22.9
		c-0.7-0.8-1.6-1.7-1.7-2.6c-0.1-1.1,0.1-2.9,0.9-3.4c0.8-0.6,2.4-0.1,3.6,0.2c0.6,0.2,1.1,1,1.6,1.5c6.4,6.9,12.8,13.8,19.4,20.9
		c0.1-0.4,0.3-0.6,0.3-0.9c0.2-11.6,0.9-23.3-1.2-34.9c-5.3-30.1-30.6-54.9-60.9-59.5c-15.1-2.3-30.1-1.9-44.4,3.7
		C33.1,38.2,18.3,57,13.5,83.5c-2.9,16.1-2.3,32.2,3.8,47.6c9.8,24.7,28.1,39.6,54.2,44.2c21.6,3.8,42.1,0.5,60.7-11.8
		c1-0.7,2-1.4,3.1-2.1c1.9-1.2,4.3-1.2,5.2,0.1c1,1.4,0.3,3.1-1.9,4.6c-12,8.2-25.4,13-39.8,14.6c-15.1,1.7-30.1,0.8-44.4-5
		C28.4,165.2,13.7,145.5,9,118.2c-2.8-16.4-2.2-32.7,3.1-48.5c9.3-28,29.2-44.1,57.9-49.4c18.8-3.4,37.3-1.8,54.8,6.1
		c25,11.3,39.1,31.1,44.3,57.7c2.1,10.9,1.4,21.9,1.3,32.9c0,0.9,0,1.8,0,2.7C170.5,119.7,170.7,119.8,170.9,119.9z"/>
	<path class="st2" d="M62.9,120.3c0-10.9-0.1-21.4,0-31.9c0-3,2.3-4.7,4.5-6.1c4.3-2.6,9.1-3.5,13.9-3.9C87.7,78,94,78.1,100,80.2
		c2.3,0.8,4.6,2,6.5,3.5c1.3,1,2.5,3,2.6,4.5c0.2,10.6,0.1,21.3,0.1,32.2c-4.7,0-9.3,0-14,0c0,11.1,0,21.9,0,32.9
		c-5.8,0-11.6,0-17.6,0c-0.3-11-0.5-21.9-0.8-33C72.1,120.3,67.7,120.3,62.9,120.3z"/>
	<path class="st2" d="M85.8,69.4c-6.4,0-11.4-4.9-11.4-11.2c0-6.4,5.5-11.6,12-11.6c6.4,0,11.4,5,11.3,11.3
		C97.8,64.3,92.4,69.4,85.8,69.4z"/>
</g>
</svg>
