<svg width="100" height="100" viewBox="0 0 100 100" fill="none" xmlns="http://www.w3.org/2000/svg">
<g clip-path="url(#clip0_179_1423)">
<path d="M48.9895 74.4061C49.4093 71.5699 49.8353 69.2148 50.1482 68.2652C50.5789 66.9556 51.5474 65.896 52.802 65.3379L65.3147 60.4045L67.5173 59.7992C70.9651 58.848 74.6062 58.8622 78.0492 59.8369L80.06 60.4045L92.7567 65.341C94.0223 65.8944 94.9986 66.9603 95.4325 68.2794C95.7454 69.229 96.1714 71.5778 96.5912 74.4061" stroke="#333333" stroke-width="3" stroke-linejoin="round"/>
<path d="M43.4356 81.3397H1V69.4102H5.82966H6.1095H7.10467H47.2591" stroke="#333333" stroke-width="3" stroke-linejoin="round"/>
<path d="M42.1873 47.7588C43.5409 50.0793 44.1635 53.6025 44.1996 56.1714" stroke="#333333" stroke-width="3" stroke-linejoin="round"/>
<path d="M41.7785 59.1566C42.1432 60.4458 43.4717 61.191 44.7467 60.8215C46.0201 60.4521 46.7559 59.1063 46.3912 57.8171C46.0264 56.528 44.698 55.7828 43.4229 56.1522C42.1495 56.5217 41.4137 57.8675 41.7785 59.1566Z" stroke="#333333" stroke-width="3" stroke-linejoin="round"/>
<path d="M17.6614 54.6694C17.8768 52.6256 18.493 49.6259 19.5825 47.7598" stroke="#333333" stroke-width="3" stroke-linejoin="round"/>
<path d="M19.8768 64.0098L21.5087 64.0224L21.5495 58.3249C21.5574 57.2669 21.1408 56.3566 20.4616 55.7104C19.7824 55.0611 18.8376 54.676 17.7937 54.6681C15.7027 54.6524 13.9985 56.1538 13.9828 58.2683L13.9419 63.9658L15.5738 63.9784" stroke="#333333" stroke-width="3" stroke-linecap="round" stroke-linejoin="round"/>
<path d="M19.5577 28.7746C19.5309 27.627 19.4681 24.9747 19.4067 24.0723C19.4036 20.9642 20.1928 14.6473 25.9092 14.63C27.7282 14.6237 27.2204 13.377 30.7294 13.377C41.4704 13.3707 42.3618 20.6262 42.3618 24.0739C42.2564 24.9166 42.2313 27.5373 42.2266 28.7872" stroke="#333333" stroke-width="3" stroke-linejoin="round"/>
<path d="M30.8845 43.4396C31.4756 43.4396 31.8152 43.405 32.2805 43.3342C32.4079 43.3154 32.4896 43.3012 32.4896 43.3012C33.5163 43.1472 34.3636 43.0135 35.2158 42.3579C35.6717 42.0058 36.1308 41.6112 36.5741 41.1867C37.8538 39.9683 39.0219 38.5219 39.6602 37.294L40.5265 34.8965C40.6114 34.6591 40.7497 34.4516 40.9321 34.2834C42.5687 32.7804 43.6394 29.3719 41.8267 28.5135C41.8267 28.5135 41.0767 28.916 40.4919 28.0781C40.1728 27.6206 39.7986 26.9571 39.6005 26.0374C39.558 25.8409 39.3772 25.7135 39.1839 25.7418C32.2821 26.7889 26.9525 23.195 25.242 21.835C25.0974 21.7203 24.9087 21.681 24.7295 21.7266C24.5518 21.7706 24.3616 21.8853 24.3286 22.0709C24.1761 22.9072 23.9717 23.6949 23.7123 24.437C23.1007 26.2025 22.3603 27.4146 21.288 28.5607C20.7016 29.188 19.9423 28.5135 19.9423 28.5135C18.1296 29.3719 19.1987 32.7788 20.8368 34.2834C21.0192 34.4516 21.1576 34.6591 21.2425 34.8965L22.1087 37.294C22.7486 38.525 23.9135 39.9683 25.1948 41.1867C25.6398 41.6112 26.0988 42.0073 26.5532 42.3579C27.4037 43.0135 28.2527 43.1472 29.2762 43.3012C29.2762 43.3012 29.3595 43.3154 29.4853 43.3342C29.9506 43.405 30.2902 43.4396 30.8829 43.4396" stroke="#333333" stroke-width="3" stroke-linejoin="round"/>
<path d="M36.5728 41.1846C36.6608 42.8904 36.7268 44.3289 37.0381 45.629L50.6058 51.1489C51.8557 51.6976 52.8194 52.754 53.2486 54.0637C53.6495 55.2821 54.2328 58.3352 54.7484 61.8207" stroke="#333333" stroke-width="3" stroke-linejoin="round"/>
<path d="M25.1966 41.1846C25.1086 42.8904 25.0425 44.3289 24.7312 45.629L11.1463 51.1457C9.90583 51.6976 8.95311 52.7509 8.52705 54.0495C7.94064 55.8339 6.94861 61.5848 6.36377 66.85" stroke="#333333" stroke-width="3" stroke-linejoin="round"/>
<path d="M82.6591 48.0916C82.854 47.5617 83.126 47.0697 83.4656 46.6216C84.6683 45.0353 85.228 42.1174 84.1306 41.0876C84.1369 39.8377 84.1605 37.2154 84.2658 36.3727C84.2658 32.925 83.376 25.6711 72.6335 25.6758C69.1244 25.6758 69.6322 26.9241 67.8132 26.9288C62.0969 26.9461 61.3061 33.263 61.3108 36.3711C61.3721 37.2736 61.435 39.9258 61.4617 41.0735C60.3439 42.0938 60.9036 45.0243 62.1126 46.6184C62.4506 47.0634 62.7273 47.5665 62.9223 48.0916L63.4819 49.6071C64.114 50.8318 65.5525 53.1382 67.8007 54.866C71.4072 55.6237 74.2732 55.5404 77.7807 54.866C80.0304 53.1382 81.4674 50.8318 82.0994 49.6071L82.6591 48.09V48.0916Z" stroke="#333333" stroke-width="3" stroke-linejoin="round"/>
<path d="M78.5115 54.2637C78.5869 56.0905 78.6718 58.8528 78.9422 59.9784" stroke="#333333" stroke-width="3" stroke-linejoin="round"/>
<path d="M66.634 59.9767C66.9044 58.8479 66.9893 56.0872 67.0632 54.2588" stroke="#333333" stroke-width="3" stroke-linejoin="round"/>
<path d="M46.8471 86.6238L46.2827 79.2362C46.2827 77.9801 47.2606 76.9629 48.4664 76.9629H97.1073C98.3132 76.9629 99.291 77.9801 99.291 79.2362L98.7266 86.6238" stroke="#333333" stroke-width="3" stroke-linejoin="round"/>
<path d="M23.2993 44.9756L28.5204 48.5474C29.9165 49.5013 31.561 49.5013 32.9571 48.5474L38.1782 44.9756" stroke="#333333" stroke-width="1.70736" stroke-linejoin="round"/>
</g>
<defs>
<clipPath id="clip0_179_1423">
<rect width="100" height="100" fill="white"/>
</clipPath>
</defs>
</svg>
