<svg width="80" height="100" viewBox="0 0 80 100" fill="none" xmlns="http://www.w3.org/2000/svg">
<g clip-path="url(#clip0_178_1421)">
<path d="M65.0009 12.499H61.4277V16.0722H65.0009V12.499Z" fill="#505050"/>
<path d="M57.8546 12.499H45.356V16.0722H57.8546V12.499Z" fill="#505050"/>
<path d="M64.9972 19.6416H45.356V23.2148H64.9972V19.6416Z" fill="#505050"/>
<path d="M64.9971 26.7881H52.4985V30.3612H64.9971V26.7881Z" fill="#505050"/>
<path d="M52.5024 85.7148H48.9292V89.288H52.5024V85.7148Z" fill="#505050"/>
<path d="M54.2851 74.9998H18.5722C16.6036 74.9998 14.999 73.399 14.999 71.4267V64.2841C14.999 62.3155 16.5999 60.7109 18.5722 60.7109H54.2851C56.2537 60.7109 57.8583 62.3118 57.8583 64.2841V71.4267C57.8583 73.3953 56.2574 74.9998 54.2851 74.9998ZM18.5722 64.2878V71.4304H54.2888V64.2878H18.5722Z" fill="#505050"/>
<path d="M20.3553 82.1414H11.4262C9.4576 82.1414 7.85303 80.5406 7.85303 78.5683V71.4257C7.85303 69.4571 9.45389 67.8525 11.4262 67.8525H16.7822V71.4257H11.4262V78.5683H20.3553V73.2123H23.9285V78.5683C23.9285 80.5369 22.3276 82.1414 20.3553 82.1414Z" fill="#505050"/>
<path d="M61.4276 82.1414H52.4984C50.5299 82.1414 48.9253 80.5406 48.9253 78.5683V73.2123H52.4984V78.5683H61.4276V71.4257H56.0716V67.8525H61.4276C63.3962 67.8525 65.0008 69.4534 65.0008 71.4257V78.5683C65.0008 80.5369 63.3999 82.1414 61.4276 82.1414Z" fill="#505050"/>
<path d="M15.0028 87.502H11.4297V98.2177H15.0028V87.502Z" fill="#505050"/>
<path d="M72.1435 96.4307H2.50049V100.004H72.1435V96.4307Z" fill="#505050"/>
<path d="M79.286 96.4307H75.7129V100.004H79.286V96.4307Z" fill="#505050"/>
<path d="M61.4277 98.2134H57.8546V85.7148H63.2106C66.1635 85.7148 68.5666 83.3117 68.5666 80.3588V8.92917C68.5666 5.9763 66.1635 3.57315 63.2106 3.57315H9.64303C6.69017 3.57315 4.28702 5.9763 4.28702 8.92917V80.3588C4.28702 83.3117 6.69017 85.7148 9.64303 85.7148H45.356V89.288H9.64303C4.72159 89.288 0.713867 85.284 0.713867 80.3588V8.92917C0.713867 4.00401 4.71788 0 9.64303 0H63.2143C68.1358 0 72.1435 4.00401 72.1435 8.92917V80.3588C72.1435 85.2802 68.1395 89.288 63.2143 89.288H61.4277V98.2171V98.2134Z" fill="#505050"/>
<path d="M21.5584 44.4081L18.1636 43.2975C19.913 37.9489 20.355 32.0692 20.3587 32.0098L23.9207 32.2661C23.9022 32.5223 23.4416 38.6435 21.5584 44.4044V44.4081Z" fill="#505050"/>
<path d="M33.4404 44.4046C31.5536 38.64 31.0967 32.53 31.0781 32.27L34.6401 32.0137C34.6438 32.0731 35.0896 37.9565 36.8353 43.2903L33.4404 44.4046Z" fill="#505050"/>
<path d="M41.0103 38.2087C40.0892 36.957 39.2683 35.6162 38.5775 34.2233L36.854 30.7764C35.0712 27.2107 31.4906 24.997 27.5089 24.997H27.5051C23.3971 24.997 19.9391 27.1996 18.0226 31.0401L16.4291 34.2233C15.7345 35.6124 14.9137 36.9533 13.9963 38.205L11.1177 36.0879C11.9162 34.9996 12.6331 33.8333 13.2348 32.6261L14.8283 29.443C17.3391 24.425 22.0748 21.4275 27.5051 21.4238H27.5089C32.8537 21.4238 37.6563 24.3953 40.0483 29.1756L41.7718 32.6224C42.3735 33.8333 43.0866 34.9959 43.8889 36.0842L41.0103 38.2013V38.2087Z" fill="#505050"/>
<path d="M27.5015 25.0009C23.5606 25.0009 20.3589 21.7992 20.3589 17.8583V14.2852C20.3589 10.3443 23.5606 7.14258 27.5015 7.14258C31.4423 7.14258 34.6441 10.3443 34.6441 14.2852V17.8583C34.6441 21.7992 31.4423 25.0009 27.5015 25.0009ZM27.5015 10.7157C25.5329 10.7157 23.9283 12.3166 23.9283 14.2889V17.862C23.9283 19.8306 25.5292 21.4352 27.5015 21.4352C29.4738 21.4352 31.0746 19.8343 31.0746 17.862V14.2889C31.0746 12.3203 29.4738 10.7157 27.5015 10.7157Z" fill="#505050"/>
<path d="M22.1417 53.5718H16.9714C12.9302 53.5718 9.64307 50.2847 9.64307 46.2435C9.64307 43.391 11.9608 41.0732 14.8134 41.0732C21.5102 41.0732 30.0457 46.9641 34.0311 50.4407L31.6837 53.1336C27 49.0441 19.7237 44.6427 14.8134 44.6427C13.9294 44.6427 13.2125 45.3595 13.2125 46.2435C13.2125 48.3161 14.8988 50.0024 16.9714 50.0024H22.1417V53.5756V53.5718Z" fill="#505050"/>
<path d="M38.0276 53.5715H20.355V49.9983H38.0276C40.1002 49.9983 41.7865 48.312 41.7865 46.2394C41.7865 45.3554 41.0696 44.6386 40.1856 44.6386C37.1845 44.6386 33.0207 46.2729 28.4633 49.2443L26.5133 46.2506C30.1459 43.8846 35.4647 41.0654 40.1856 41.0654C43.0382 41.0654 45.3559 43.3832 45.3559 46.2357C45.3559 50.2769 42.0688 53.564 38.0276 53.564V53.5715Z" fill="#505050"/>
</g>
<defs>
<clipPath id="clip0_178_1421">
<rect width="78.5722" height="100" fill="white" transform="translate(0.713867)"/>
</clipPath>
</defs>
</svg>
