<svg width="94" height="100" viewBox="0 0 94 100" fill="none" xmlns="http://www.w3.org/2000/svg">
<g clip-path="url(#clip0_451_9563)">
<path d="M84.9204 47.1211L82.6287 44.5073C83.5487 43.4633 84.0542 42.0739 84.0542 40.5962C84.0542 39.1185 83.5487 37.7291 82.6287 36.6851L84.9204 34.0713C86.4504 35.8138 87.293 38.1282 87.293 40.5962C87.293 43.0642 86.4504 45.3786 84.9204 47.1211Z" fill="#724632"/>
<path d="M89.5039 52.3412L87.2122 49.7313C89.3522 47.2902 90.5318 44.0469 90.5318 40.5964C90.5318 37.1459 89.3522 33.9026 87.2122 31.4615L89.5039 28.8516C92.2573 31.9912 93.7739 36.1595 93.7739 40.5964C93.7739 45.0333 92.2573 49.2016 89.5039 52.3412Z" fill="#724632"/>
<path d="M13.6077 99.9997L10.6992 98.3723L16.7419 84.3822C17.598 82.5782 19.0202 81.327 20.6783 80.8856C27.294 79.12 31.4865 74.211 33.4917 65.8783C33.8456 64.416 34.3107 63.1647 34.9139 62.0593L40.0164 52.7095C40.2118 52.3717 40.3028 52.0263 40.3028 51.6694C40.3028 50.6522 39.5749 49.8232 38.6818 49.8232C38.2066 49.8232 37.7516 50.0727 37.4382 50.5102L27.604 63.5101L25.1472 61.1036L34.9544 48.1344C35.861 46.8716 37.2259 46.1309 38.6784 46.1309C41.3577 46.1309 43.5382 48.6142 43.5382 51.6655C43.5382 52.7402 43.2619 53.788 42.7429 54.69L37.6606 64.0014C37.2225 64.7998 36.8821 65.7325 36.6125 66.8494C34.2938 76.4755 29.1779 82.4017 21.4096 84.4743C20.6547 84.6777 20.0009 85.2573 19.6167 86.071L13.6009 99.9959L13.6077 99.9997Z" fill="#724632"/>
<path d="M3.68576 88.9996L0.773926 87.3799L21.5645 38.8998C22.7508 35.8254 24.9583 33.3997 27.7522 32.1331L31.6043 30.3867L32.8041 33.8142L28.952 35.5606C26.9535 36.4664 25.3728 38.2051 24.5033 40.4504L3.68576 88.9996Z" fill="#724632"/>
<path d="M77.5736 60.8926H36.4541V64.5849H77.5736V60.8926Z" fill="#724632"/>
<path d="M56.5099 68.2734H53.2678V71.9658H56.5099V68.2734Z" fill="#724632"/>
<path d="M72.7102 79.3467H37.0638C34.2126 79.3467 31.658 77.1743 30.8492 74.0654L33.9565 73.0176C34.3609 74.572 35.6382 75.6544 37.0638 75.6544H72.7102C74.4963 75.6544 75.9523 74.0001 75.9523 71.9621V7.38082C75.9523 5.34659 74.4997 3.68849 72.7102 3.68849H37.0638C35.2776 3.68849 33.8217 5.34275 33.8217 7.38082V54.6096H30.5796V7.38082C30.5796 3.30851 33.4847 0 37.0604 0H72.7068C76.2825 0 79.1876 3.30851 79.1876 7.38082V71.9659C79.1876 76.0382 76.2825 79.3467 72.7068 79.3467H72.7102Z" fill="#724632"/>
<path d="M51.0434 43.4786C49.3921 40.8417 48.408 36.3127 48.408 31.3691C48.408 23.5853 53.5003 17.4326 53.7194 17.1755L54.8888 15.7822L56.0583 17.1755C56.2739 17.4326 61.3697 23.5853 61.3697 31.3691C61.3697 36.2781 60.3856 40.7995 58.7409 43.467L56.0886 41.3445C57.3457 39.3064 58.1275 35.4836 58.1275 31.3691C58.1275 27.2546 56.1964 23.4279 54.8888 21.3821C53.5812 23.4394 51.6467 27.1893 51.6467 31.3691C51.6467 35.5489 52.4252 39.3295 53.6789 41.3368L51.0401 43.4786H51.0434Z" fill="#724632"/>
<path d="M56.51 44.2852H53.2678C48.2294 44.2852 41.425 41.2262 38.739 35.5534L38.1021 34.21L39.1434 33.2466C42.2238 30.3949 46.241 29.0822 50.2381 29.6618L49.8235 33.3234C47.1678 32.9242 44.5795 33.5844 42.3889 35.135C44.6368 38.244 49.1764 40.5968 53.2712 40.5968H56.5133C60.6148 40.5968 65.0264 38.29 67.2608 35.1427C65.0904 33.6036 62.4684 32.9703 59.9408 33.308L59.56 29.6426C63.3615 29.1283 67.4462 30.4217 70.4962 33.2466L71.5376 34.21L70.9006 35.5534C68.5415 40.5315 62.3572 44.2852 56.5133 44.2852H56.51Z" fill="#724632"/>
<path d="M42.9549 32.6626C42.2707 30.4864 41.9236 28.1912 41.9236 25.8345C41.9236 24.5257 42.0415 23.1939 42.2707 21.8697L42.4999 20.5493L43.6727 20.3958C46.6182 20.0005 49.7559 20.8219 52.3779 22.7102L50.6422 25.8268C49.001 24.6447 47.1406 24.0075 45.2533 23.9884C45.1927 24.6063 45.159 25.2243 45.159 25.8345C45.159 27.7651 45.442 29.6458 45.9981 31.4191L42.9481 32.6626H42.9549Z" fill="#724632"/>
<path d="M66.8057 32.7127L63.7591 31.4576C64.3253 29.6729 64.6117 27.7807 64.6117 25.8309C64.6117 25.2244 64.5814 24.6065 64.5174 23.9847C62.6334 24.0077 60.7697 24.641 59.1251 25.8232L57.3928 22.7066C60.0182 20.8144 63.1491 19.9968 66.098 20.3922L67.2742 20.5457L67.5034 21.8699C67.7325 23.1979 67.8471 24.5297 67.8471 25.8309C67.8471 28.2105 67.4966 30.525 66.8024 32.7127H66.8057Z" fill="#724632"/>
</g>
<defs>
<clipPath id="clip0_451_9563">
<rect width="93" height="100" fill="white" transform="translate(0.773926)"/>
</clipPath>
</defs>
</svg>
