<svg width="101" height="100" viewBox="0 0 101 100" fill="none" xmlns="http://www.w3.org/2000/svg">
<g clip-path="url(#clip0_436_7035)">
<path d="M75.7392 12.499H72.166V16.0722H75.7392V12.499Z" fill="#724632"/>
<path d="M68.5928 12.499H56.0942V16.0722H68.5928V12.499Z" fill="#724632"/>
<path d="M75.7354 19.6416H56.0942V23.2148H75.7354V19.6416Z" fill="#724632"/>
<path d="M75.7354 26.7881H63.2368V30.3612H75.7354V26.7881Z" fill="#724632"/>
<path d="M63.2406 85.7148H59.6675V89.288H63.2406V85.7148Z" fill="#724632"/>
<path d="M65.0234 74.9998H29.3105C27.3419 74.9998 25.7373 73.399 25.7373 71.4267V64.2841C25.7373 62.3155 27.3382 60.7109 29.3105 60.7109H65.0234C66.992 60.7109 68.5966 62.3118 68.5966 64.2841V71.4267C68.5966 73.3953 66.9957 74.9998 65.0234 74.9998ZM29.3105 64.2878V71.4304H65.0271V64.2878H29.3105Z" fill="#724632"/>
<path d="M31.0936 82.1414H22.1645C20.1959 82.1414 18.5913 80.5406 18.5913 78.5683V71.4257C18.5913 69.4571 20.1922 67.8525 22.1645 67.8525H27.5205V71.4257H22.1645V78.5683H31.0936V73.2123H34.6668V78.5683C34.6668 80.5369 33.0659 82.1414 31.0936 82.1414Z" fill="#724632"/>
<path d="M72.1659 82.1414H63.2367C61.2681 82.1414 59.6636 80.5406 59.6636 78.5683V73.2123H63.2367V78.5683H72.1659V71.4257H66.8099V67.8525H72.1659C74.1345 67.8525 75.739 69.4534 75.739 71.4257V78.5683C75.739 80.5369 74.1382 82.1414 72.1659 82.1414Z" fill="#724632"/>
<path d="M25.7411 87.502H22.168V98.2177H25.7411V87.502Z" fill="#724632"/>
<path d="M82.8818 96.4307H13.2388V100.004H82.8818V96.4307Z" fill="#724632"/>
<path d="M90.0243 96.4307H86.4512V100.004H90.0243V96.4307Z" fill="#724632"/>
<path d="M72.166 98.2134H68.5929V85.7148H73.9489C76.9018 85.7148 79.3049 83.3117 79.3049 80.3588V8.92917C79.3049 5.9763 76.9018 3.57315 73.9489 3.57315H20.3813C17.4285 3.57315 15.0253 5.9763 15.0253 8.92917V80.3588C15.0253 83.3117 17.4285 85.7148 20.3813 85.7148H56.0943V89.288H20.3813C15.4599 89.288 11.4521 85.284 11.4521 80.3588V8.92917C11.4521 4.00401 15.4562 0 20.3813 0H73.9526C78.874 0 82.8818 4.00401 82.8818 8.92917V80.3588C82.8818 85.2802 78.8778 89.288 73.9526 89.288H72.166V98.2171V98.2134Z" fill="#724632"/>
<path d="M32.2967 44.4081L28.9019 43.2975C30.6513 37.9489 31.0933 32.0692 31.097 32.0098L34.659 32.2661C34.6404 32.5223 34.1799 38.6435 32.2967 44.4044V44.4081Z" fill="#724632"/>
<path d="M44.1787 44.4046C42.2918 38.64 41.835 32.53 41.8164 32.27L45.3784 32.0137C45.3821 32.0731 45.8278 37.9565 47.5736 43.2903L44.1787 44.4046Z" fill="#724632"/>
<path d="M51.7486 38.2087C50.8275 36.957 50.0066 35.6162 49.3157 34.2233L47.5923 30.7764C45.8095 27.2107 42.2289 24.997 38.2471 24.997H38.2434C34.1354 24.997 30.6774 27.1996 28.7608 31.0401L27.1674 34.2233C26.4728 35.6124 25.652 36.9533 24.7345 38.205L21.856 36.0879C22.6545 34.9996 23.3714 33.8333 23.9731 32.6261L25.5665 29.443C28.0774 24.425 32.8131 21.4275 38.2434 21.4238H38.2471C43.592 21.4238 48.3946 24.3953 50.7866 29.1756L52.51 32.6224C53.1118 33.8333 53.8249 34.9959 54.6272 36.0842L51.7486 38.2013V38.2087Z" fill="#724632"/>
<path d="M38.2398 25.0009C34.2989 25.0009 31.0972 21.7992 31.0972 17.8583V14.2852C31.0972 10.3443 34.2989 7.14258 38.2398 7.14258C42.1806 7.14258 45.3824 10.3443 45.3824 14.2852V17.8583C45.3824 21.7992 42.1806 25.0009 38.2398 25.0009ZM38.2398 10.7157C36.2712 10.7157 34.6666 12.3166 34.6666 14.2889V17.862C34.6666 19.8306 36.2675 21.4352 38.2398 21.4352C40.2121 21.4352 41.8129 19.8343 41.8129 17.862V14.2889C41.8129 12.3203 40.2121 10.7157 38.2398 10.7157Z" fill="#724632"/>
<path d="M32.88 53.5718H27.7097C23.6685 53.5718 20.3813 50.2847 20.3813 46.2435C20.3813 43.391 22.6991 41.0732 25.5516 41.0732C32.2485 41.0732 40.784 46.9641 44.7694 50.4407L42.422 53.1336C37.7383 49.0441 30.4619 44.6427 25.5516 44.6427C24.6676 44.6427 23.9508 45.3595 23.9508 46.2435C23.9508 48.3161 25.6371 50.0024 27.7097 50.0024H32.88V53.5756V53.5718Z" fill="#724632"/>
<path d="M48.7659 53.5715H31.0933V49.9983H48.7659C50.8385 49.9983 52.5248 48.312 52.5248 46.2394C52.5248 45.3554 51.8079 44.6386 50.9239 44.6386C47.9227 44.6386 43.759 46.2729 39.2016 49.2443L37.2516 46.2506C40.8841 43.8846 46.203 41.0654 50.9239 41.0654C53.7765 41.0654 56.0942 43.3832 56.0942 46.2357C56.0942 50.2769 52.807 53.564 48.7659 53.564V53.5715Z" fill="#724632"/>
</g>
<defs>
<clipPath id="clip0_436_7035">
<rect width="78.5722" height="100" fill="white" transform="translate(11.4521)"/>
</clipPath>
</defs>
</svg>
