<svg width="101" height="100" viewBox="0 0 101 100" fill="none" xmlns="http://www.w3.org/2000/svg">
<g clip-path="url(#clip0_436_6946)">
<path d="M49.7278 75.4061C50.1475 72.5699 50.5736 70.2148 50.8865 69.2652C51.3172 67.9556 52.2857 66.896 53.5403 66.3379L66.053 61.4045L68.2556 60.7992C71.7034 59.848 75.3445 59.8622 78.7875 60.8369L80.7983 61.4045L93.495 66.341C94.7606 66.8944 95.7369 67.9603 96.1708 69.2794C96.4836 70.229 96.9097 72.5778 97.3295 75.4061" stroke="#724632" stroke-width="3.55" stroke-linejoin="round"/>
<path d="M44.1739 81.3397H1.73828V69.4102H6.56794H6.84778H7.84295H47.9973" stroke="#724632" stroke-width="3.55" stroke-linejoin="round"/>
<path d="M42.9255 47.7588C44.2792 50.0793 44.9017 53.6025 44.9379 56.1714" stroke="#724632" stroke-width="3.55" stroke-linejoin="round"/>
<path d="M42.5167 59.1566C42.8815 60.4458 44.21 61.191 45.485 60.8215C46.7584 60.4521 47.4942 59.1063 47.1294 57.8171C46.7647 56.528 45.4362 55.7828 44.1612 56.1522C42.8878 56.5217 42.152 57.8675 42.5167 59.1566Z" stroke="#724632" stroke-width="3.55" stroke-linejoin="round"/>
<path d="M18.3997 54.6694C18.615 52.6256 19.2313 49.6259 20.3208 47.7598" stroke="#724632" stroke-width="3.55" stroke-linejoin="round"/>
<path d="M20.6151 64.0098L22.247 64.0224L22.2878 58.3249C22.2957 57.2669 21.8791 56.3566 21.1999 55.7104C20.5207 55.0611 19.5759 54.676 18.532 54.6681C16.441 54.6524 14.7368 56.1538 14.7211 58.2683L14.6802 63.9658L16.3121 63.9784" stroke="#724632" stroke-width="3.55" stroke-linecap="round" stroke-linejoin="round"/>
<path d="M20.296 28.7746C20.2692 27.627 20.2063 24.9747 20.145 24.0723C20.1419 20.9642 20.9311 14.6473 26.6475 14.63C28.4664 14.6237 27.9586 13.377 31.4677 13.377C42.2086 13.3707 43.1 20.6262 43.1 24.0739C42.9947 24.9166 42.9696 27.5373 42.9648 28.7872" stroke="#724632" stroke-width="3.55" stroke-linejoin="round"/>
<path d="M31.6228 43.4396C32.2139 43.4396 32.5535 43.405 33.0188 43.3342C33.1462 43.3154 33.2279 43.3012 33.2279 43.3012C34.2545 43.1472 35.1019 43.0135 35.954 42.3579C36.41 42.0058 36.869 41.6112 37.3124 41.1867C38.5921 39.9683 39.7602 38.5219 40.3985 37.294L41.2648 34.8965C41.3497 34.6591 41.488 34.4516 41.6704 34.2834C43.307 32.7804 44.3776 29.3719 42.5649 28.5135C42.5649 28.5135 41.815 28.916 41.2302 28.0781C40.911 27.6206 40.5369 26.9571 40.3388 26.0374C40.2963 25.8409 40.1155 25.7135 39.9222 25.7418C33.0204 26.7889 27.6908 23.195 25.9803 21.835C25.8357 21.7203 25.647 21.681 25.4678 21.7266C25.2901 21.7706 25.0999 21.8853 25.0669 22.0709C24.9144 22.9072 24.71 23.6949 24.4506 24.437C23.839 26.2025 23.0985 27.4146 22.0263 28.5607C21.4399 29.188 20.6806 28.5135 20.6806 28.5135C18.8679 29.3719 19.9369 32.7788 21.5751 34.2834C21.7575 34.4516 21.8958 34.6591 21.9807 34.8965L22.847 37.294C23.4869 38.525 24.6518 39.9683 25.9331 41.1867C26.378 41.6112 26.8371 42.0073 27.2915 42.3579C28.142 43.0135 28.991 43.1472 30.0144 43.3012C30.0144 43.3012 30.0978 43.3154 30.2235 43.3342C30.6889 43.405 31.0285 43.4396 31.6212 43.4396" stroke="#724632" stroke-width="3.55" stroke-linejoin="round"/>
<path d="M37.311 41.1846C37.3991 42.8904 37.4651 44.3289 37.7764 45.629L51.3441 51.1489C52.5939 51.6976 53.5577 52.754 53.9869 54.0637C54.3878 55.2821 54.971 58.3352 55.4867 61.8207" stroke="#724632" stroke-width="3.55" stroke-linejoin="round"/>
<path d="M25.9349 41.1846C25.8468 42.8904 25.7808 44.3289 25.4695 45.629L11.8845 51.1457C10.6441 51.6976 9.69139 52.7509 9.26534 54.0495C8.67892 55.8339 7.68689 61.5848 7.10205 66.85" stroke="#724632" stroke-width="3.55" stroke-linejoin="round"/>
<path d="M83.3974 48.0916C83.5923 47.5617 83.8643 47.0697 84.2039 46.6216C85.4066 45.0353 85.9663 42.1174 84.8689 41.0876C84.8752 39.8377 84.8988 37.2154 85.0041 36.3727C85.0041 32.925 84.1143 25.6711 73.3717 25.6758C69.8627 25.6758 70.3705 26.9241 68.5515 26.9288C62.8352 26.9461 62.0444 33.263 62.0491 36.3711C62.1104 37.2736 62.1733 39.9258 62.2 41.0735C61.0822 42.0938 61.6419 45.0243 62.8509 46.6184C63.1889 47.0634 63.4656 47.5665 63.6605 48.0916L64.2202 49.6071C64.8522 50.8318 66.2908 53.1382 68.5389 54.866C72.1455 55.6237 75.0115 55.5404 78.519 54.866C80.7687 53.1382 82.2057 50.8318 82.8377 49.6071L83.3974 48.09V48.0916Z" stroke="#724632" stroke-width="3.55" stroke-linejoin="round"/>
<path d="M79.2498 54.2637C79.3252 56.0905 79.4101 58.8528 79.6805 59.9784" stroke="#724632" stroke-width="3.55" stroke-linejoin="round"/>
<path d="M67.3723 59.9767C67.6427 58.8479 67.7276 56.0872 67.8015 54.2588" stroke="#724632" stroke-width="3.55" stroke-linejoin="round"/>
<path d="M47.5854 86.6238L47.021 79.2362C47.021 77.9801 47.9989 76.9629 49.2047 76.9629H97.8456C99.0514 76.9629 100.029 77.9801 100.029 79.2362L99.4649 86.6238" stroke="#724632" stroke-width="3.55" stroke-linejoin="round"/>
<path d="M24.0376 44.9766L29.2587 48.5484C30.6548 49.5023 32.2993 49.5023 33.6953 48.5484L38.9165 44.9766" stroke="#724632" stroke-width="3.55" stroke-linejoin="round"/>
</g>
<defs>
<clipPath id="clip0_436_6946">
<rect width="100" height="100" fill="white" transform="translate(0.738281)"/>
</clipPath>
</defs>
</svg>
