<svg width="103" height="100" viewBox="0 0 103 100" fill="none" xmlns="http://www.w3.org/2000/svg">
<g clip-path="url(#clip0_436_6996)">
<path d="M9.50995 22.8086H5.99951V26.319H9.50995V22.8086Z" fill="#724632"/>
<path d="M9.50995 15.791H5.99951V19.2978H9.50995V15.791Z" fill="#724632"/>
<path d="M39.3342 14.0352H35.8237V17.5456H39.3342V14.0352Z" fill="#724632"/>
<path d="M39.3342 7.01855H35.8237V10.529H39.3342V7.01855Z" fill="#724632"/>
<path d="M39.3342 0.000976562H35.8237V3.51141H39.3342V0.000976562Z" fill="#724632"/>
<path d="M63.8935 8.77344H60.3867V12.2802H63.8935V8.77344Z" fill="#724632"/>
<path d="M63.8935 1.75586H60.3867V5.26265H63.8935V1.75586Z" fill="#724632"/>
<path d="M95.4724 19.2969H91.9656V22.8073H95.4724V19.2969Z" fill="#724632"/>
<path d="M95.4724 12.2803H91.9656V15.7907H95.4724V12.2803Z" fill="#724632"/>
<path d="M95.4724 5.2627H91.9656V8.77313H95.4724V5.2627Z" fill="#724632"/>
<path d="M64.6263 66.6652H58.6236V63.1548H64.6263C67.0311 63.1548 69.06 61.2463 69.1512 58.9072C69.1731 58.3927 69.1366 57.9621 69.049 57.5899C68.2499 54.2582 65.951 50.0946 62.3931 45.5515C59.8059 42.2454 55.8758 40.3515 51.6136 40.3515C47.3515 40.3515 43.4214 42.249 40.8342 45.5515C37.2763 50.0983 34.9774 54.2582 34.1782 57.5935C34.0906 57.9657 34.0542 58.3963 34.076 58.9072C34.1673 61.2499 36.1962 63.1584 38.6009 63.1584H46.3516C48.2857 63.1584 49.8621 61.5856 49.8621 59.648V51.2915C49.8621 50.9047 49.249 50.7588 49.0739 51.1091L45.6802 57.8964H37.5792V54.386H43.5126L45.9356 49.5363C46.6071 48.1971 47.9499 47.3687 49.4461 47.3687C51.61 47.3687 53.3689 49.1276 53.3689 51.2915V59.648C53.3689 63.5197 50.2233 66.6652 46.3516 66.6652H38.6009C34.2658 66.6652 30.7371 63.319 30.5693 59.0459C30.5364 58.2066 30.5985 57.4658 30.7663 56.7761C31.6932 52.9044 34.1527 48.4014 38.0718 43.3912C41.3268 39.2312 46.2641 36.8447 51.6136 36.8447C56.9632 36.8447 61.9005 39.2312 65.1555 43.3912C69.0782 48.4014 71.5341 52.9044 72.461 56.7761C72.6252 57.4694 72.6908 58.2102 72.658 59.0495C72.4901 63.319 68.9651 66.6688 64.6263 66.6688V66.6652Z" fill="#724632"/>
<path d="M60.3863 66.6656H56.8759C53.0042 66.6656 49.8586 63.5201 49.8586 59.6484V51.2919C49.8586 49.128 51.6175 47.3691 53.7814 47.3691C55.2739 47.3691 56.6168 48.2011 57.2882 49.5367L59.7149 54.3864H65.6483V57.8968H57.5473L54.1536 51.1095C53.9821 50.7665 53.3691 50.9088 53.3691 51.2956V59.652C53.3691 61.586 54.9418 63.1625 56.8795 63.1625H60.39V66.6729L60.3863 66.6656Z" fill="#724632"/>
<path d="M51.6138 40.3521C45.8081 40.3521 41.0862 35.6266 41.0862 29.8208V26.3104C41.0862 20.5083 45.8081 15.79 51.6138 15.79C57.4196 15.79 62.1415 20.5083 62.1415 26.3104V29.8208C62.1415 35.6266 57.4196 40.3521 51.6138 40.3521ZM51.6138 19.2968C47.7421 19.2968 44.5966 22.4424 44.5966 26.3104V29.8208C44.5966 33.6925 47.7421 36.8417 51.6138 36.8417C55.4855 36.8417 58.6311 33.6925 58.6311 29.8208V26.3104C58.6311 22.4424 55.4855 19.2968 51.6138 19.2968Z" fill="#724632"/>
<path d="M63.8748 92.9831H56.8941C53.0151 92.9831 49.8586 89.8267 49.8586 85.9477H53.3691C53.3691 87.8926 54.9528 89.4764 56.8978 89.4764H63.8785C64.8929 89.4764 65.8636 89.0385 66.5314 88.2722C67.2028 87.5095 67.5093 86.4914 67.3743 85.4842L63.4917 65.2171L66.9401 64.5566L70.841 84.9186C71.1256 87.0278 70.5126 89.0531 69.177 90.582C67.8414 92.1074 65.911 92.9831 63.8821 92.9831H63.8748Z" fill="#724632"/>
<path d="M46.3516 92.9831H39.3526C37.3237 92.9831 35.3933 92.1074 34.0578 90.582C32.7222 89.0567 32.1091 87.0278 32.3792 85.0172L36.2874 64.5566L39.7358 65.2135L35.8422 85.5791C35.7217 86.4914 36.0283 87.5058 36.6997 88.2722C37.3711 89.0385 38.3382 89.4764 39.3526 89.4764H46.3516C48.2856 89.4764 49.862 87.9036 49.862 85.9659V75.4383H53.3725V85.9659C53.3725 89.8376 50.2269 92.9831 46.3552 92.9831H46.3516Z" fill="#724632"/>
<path d="M81.445 99.9999H21.7822C20.6182 99.9999 19.5344 99.4233 18.8848 98.46C18.2353 97.4966 18.1003 96.2778 18.5345 95.1977L27.6609 72.3762C28.1973 71.037 29.4745 70.1758 30.9123 70.1758H36.6633V73.6862H30.9123L21.7895 96.5041L81.445 96.4931L72.3077 73.6826H66.5567V70.1794H72.315C73.7527 70.1794 75.0299 71.0443 75.5663 72.3798L84.6964 95.205C85.127 96.2851 84.9956 97.5039 84.3461 98.4673C83.6929 99.4306 82.6091 100.007 81.4487 100.007L81.445 99.9999Z" fill="#724632"/>
<path d="M28.8067 47.3698H15.6298C12.2544 47.3698 9.50659 44.622 9.50659 41.2466C9.50659 40.4109 9.67445 39.6008 10.0029 38.8345L12.1485 33.828C14.1045 29.2666 18.5746 26.3145 23.541 26.3145C28.5075 26.3145 32.9776 29.2629 34.9372 33.828L36.5428 37.5792L33.317 38.9586L31.7114 35.2073C30.3065 31.9341 27.1026 29.8212 23.541 29.8212C19.9795 29.8212 16.772 31.9341 15.3707 35.2073L13.225 40.2139C13.0864 40.5387 13.0134 40.8853 13.0134 41.2429C13.0134 42.6843 14.1847 43.8557 15.6261 43.8557H28.803V47.3661L28.8067 47.3698Z" fill="#724632"/>
<path d="M23.5448 29.8242C19.6731 29.8242 16.5276 26.6787 16.5276 22.807V19.2965C16.5276 15.4248 19.6731 12.2793 23.5448 12.2793C27.4165 12.2793 30.562 15.4248 30.562 19.2965V22.807C30.562 26.6787 27.4165 29.8242 23.5448 29.8242ZM23.5448 15.7897C21.6108 15.7897 20.0344 17.3625 20.0344 19.3002V22.8106C20.0344 24.7446 21.6071 26.321 23.5448 26.321C25.4825 26.321 27.0552 24.7483 27.0552 22.8106V19.3002C27.0552 17.3661 25.4825 15.7897 23.5448 15.7897Z" fill="#724632"/>
<path d="M79.6825 29.8242C75.8108 29.8242 72.6653 26.6787 72.6653 22.807V19.2965C72.6653 15.4248 75.8108 12.2793 79.6825 12.2793C83.5542 12.2793 86.6997 15.4248 86.6997 19.2965V22.807C86.6997 26.6787 83.5542 29.8242 79.6825 29.8242ZM79.6825 15.7897C77.7485 15.7897 76.1721 17.3625 76.1721 19.3002V22.8106C76.1721 24.7446 77.7448 26.321 79.6825 26.321C81.6202 26.321 83.1929 24.7483 83.1929 22.8106V19.3002C83.1929 17.3661 81.6202 15.7897 79.6825 15.7897Z" fill="#724632"/>
<path d="M25.3002 38.5967H21.7898V45.6139H25.3002V38.5967Z" fill="#724632"/>
<path d="M25.3002 52.6318H21.7898V63.1595H25.3002V52.6318Z" fill="#724632"/>
<path d="M28.807 64.9107H18.2793C15.3783 64.9107 13.0173 62.5497 13.0173 59.6487V45.5303H16.5278V59.6487C16.5278 60.6157 17.316 61.4039 18.283 61.4039H28.8106V64.9143L28.807 64.9107Z" fill="#724632"/>
<path d="M23.5449 71.9313H4.25206C3.08435 71.9313 2.00057 71.3547 1.34373 70.3877C0.686889 69.4207 0.555521 68.1983 0.986115 67.1108L6.59843 53.08C7.1312 51.7408 8.41204 50.876 9.85343 50.876H14.7688V54.3864H9.85343L4.24476 68.4136L23.5412 68.4209V71.9313H23.5449Z" fill="#724632"/>
<path d="M87.5974 47.3698H74.4205V43.8593H87.5974C89.0388 43.8593 90.2101 42.688 90.2101 41.2466C90.2101 40.889 90.1408 40.5423 89.9985 40.2175L87.8528 35.211C86.4516 31.9377 83.244 29.8212 79.6825 29.8212C76.121 29.8212 72.9134 31.9341 71.5121 35.2073L69.9248 38.9148L66.699 37.5354L68.2863 33.828C70.2423 29.2629 74.7161 26.3145 79.6825 26.3145C84.6489 26.3145 89.1191 29.2629 91.075 33.828L93.2207 38.8309C93.5491 39.5972 93.7169 40.4073 93.7169 41.2429C93.7169 44.6183 90.9692 47.3661 87.5937 47.3661L87.5974 47.3698Z" fill="#724632"/>
<path d="M81.4413 38.5967H77.9309V45.6139H81.4413V38.5967Z" fill="#724632"/>
<path d="M81.4413 52.6318H77.9309V63.1595H81.4413V52.6318Z" fill="#724632"/>
<path d="M84.9483 64.9104H74.4207V61.4H84.9483C85.9153 61.4 86.7035 60.6154 86.7035 59.6447V45.5264H90.214V59.6447C90.214 62.5458 87.853 64.9067 84.952 64.9067L84.9483 64.9104Z" fill="#724632"/>
<path d="M98.9757 71.9313H79.6829V68.4209H98.9757L93.367 54.3828H88.4553V50.876H93.3706C94.812 50.876 96.0892 51.7408 96.6256 53.08L102.238 67.1108C102.672 68.1983 102.537 69.4207 101.88 70.3877C101.227 71.3511 100.14 71.9313 98.972 71.9313H98.9757Z" fill="#724632"/>
</g>
<defs>
<clipPath id="clip0_436_6996">
<rect width="101.752" height="100" fill="white" transform="translate(0.738281)"/>
</clipPath>
</defs>
</svg>
