<svg width="101" height="98" viewBox="0 0 101 98" fill="none" xmlns="http://www.w3.org/2000/svg">
<g clip-path="url(#clip0_436_6971)">
<path d="M95.1252 49.0322V96.0605" stroke="#724632" stroke-width="3.55" stroke-linecap="round" stroke-linejoin="round"/>
<path d="M50.9977 50.5423C49.2053 51.8394 45.4081 55.4008 46.611 58.113C47.6723 60.4951 52.177 61.2498 55.2194 59.5989C57.7902 58.2074 59.7949 54.8583 58.7572 52.0989C58.2147 50.6838 56.8468 49.3158 55.1251 49.08C53.427 48.8206 52.0827 49.764 50.9977 50.5423Z" stroke="#724632" stroke-width="3.55" stroke-linecap="round" stroke-linejoin="round"/>
<path d="M50.9742 82.7344C49.2289 84.008 45.5261 87.475 46.7053 90.1165C47.7431 92.4278 52.1298 93.1825 55.1015 91.5552C57.6251 90.1872 59.5591 86.9325 58.5449 84.2438C58.0261 82.8759 56.6817 81.5316 55.0072 81.2957C53.3327 81.0363 52.0355 81.9561 50.9742 82.7344Z" stroke="#724632" stroke-width="3.55" stroke-linecap="round" stroke-linejoin="round"/>
<path d="M48.686 68.8192C46.8464 71.5315 46.8699 74.7862 48.7567 76.0598C50.2898 77.1211 52.9077 75.2815 55.5256 73.489C57.3416 72.239 58.4265 71.4607 58.5445 70.1636C58.686 68.4655 57.035 66.8145 55.4549 66.2485C52.9784 65.3287 50.0775 66.7673 48.686 68.8192Z" stroke="#724632" stroke-width="3.55" stroke-linecap="round" stroke-linejoin="round"/>
<path d="M31.4702 22.168C29.1589 21.8614 25.9513 21.6019 23.64 21.2953C19.4891 20.7293 15.3146 20.4463 11.14 20.4463C10.008 20.4463 8.28626 22.0501 7.50795 24.0784C5.88059 28.3708 10.7155 33.1586 19.4655 44.7152C21.3759 47.2387 23.0504 49.5265 24.5127 51.5312C26.7297 54.6208 28.357 58.1114 29.2532 61.8142C29.4891 62.8284 29.7013 63.7482 29.8664 64.5501C31.4702 72.2859 31.7297 78.9604 31.9183 84.4557C31.9655 85.8472 31.9183 92.4274 31.0457 94.2199" stroke="#724632" stroke-width="3.55" stroke-linecap="round" stroke-linejoin="round"/>
<path d="M30.6441 7.61816H7.64886C4.41773 7.61816 1.7998 10.3776 1.7998 13.7974V42.8776C1.7998 46.2738 4.41773 49.0568 7.64886 49.0568H17.8847" stroke="#724632" stroke-width="3.55" stroke-linecap="round" stroke-linejoin="round"/>
<path d="M73.4272 7.61816H93.8046C97.0357 7.61816 99.6537 10.3776 99.6537 13.7974V42.8776C99.6537 46.2738 97.0357 49.0568 93.8046 49.0568H85.5263" stroke="#724632" stroke-width="3.55" stroke-linecap="round" stroke-linejoin="round"/>
<path d="M7.64893 49.0322V96.0605" stroke="#724632" stroke-width="3.55" stroke-linecap="round" stroke-linejoin="round"/>
<path d="M45.3604 40.1645C45.4076 40.589 45.4311 41.2258 45.3604 41.9569C45.2896 42.9003 45.2189 43.655 44.9123 44.1739C44.5585 44.7399 43.851 44.9994 43.0491 45.0937C41.3038 45.306 39.5821 44.7164 38.2613 43.5607C35.101 40.7541 27.601 34.3154 21.917 31.0371" stroke="#724632" stroke-width="3.55" stroke-linecap="round" stroke-linejoin="round"/>
<path d="M34.3469 10.9668C33.8988 13.7026 33.8516 16.9574 34.1582 18.3253C34.8658 21.58 35.6677 22.3347 35.5969 24.2687C35.5262 26.014 34.5356 27.4762 33.4979 28.8677C33.2384 29.1979 33.3799 29.6932 33.7809 29.8347C34.229 29.9998 34.8422 30.1649 35.4082 30.3064C35.7384 30.3772 35.9743 30.6838 35.9507 31.0376L35.762 32.9715C35.7384 33.3489 35.9035 33.7262 36.2337 33.9149L37.1299 34.4809L36.8705 35.2592C36.7762 35.5423 36.7997 35.8489 36.9413 36.1083L37.1299 36.4385C37.5073 37.1225 37.3894 37.8772 37.5309 38.6319C37.6252 39.1743 37.8611 39.764 38.2384 40.1885C38.7573 40.7781 39.6771 40.6366 40.1724 40.5894C41.729 40.4479 43.4979 40.33 45.5969 40.1885" stroke="#724632" stroke-width="3.55" stroke-linecap="round" stroke-linejoin="round"/>
<path d="M37.1069 34.4814L37.956 34.3398" stroke="#724632" stroke-width="3.55" stroke-linecap="round" stroke-linejoin="round"/>
<path d="M52.8608 2.4758C56.6108 0.282404 61.3278 0.801272 64.9599 2.99467C70.1486 6.15505 73.4505 13.8437 67.8844 18.3956C67.6486 18.5843 67.3891 18.773 67.1297 18.9381" stroke="#724632" stroke-width="3.55" stroke-linecap="round" stroke-linejoin="round"/>
<path d="M52.9316 38.8904C53.2382 38.7961 54.1345 38.4659 54.6533 37.5697C55.526 36.131 54.7005 34.5272 54.6062 34.3621C53.8279 32.8999 52.3892 32.9234 51.2571 32.1216C47.9788 29.8338 51.6581 23.914 48.875 19.9518C46.2099 16.1546 39.9835 17.4753 35.8798 13.3008C35.3137 12.7112 33.9458 11.2961 34.2052 9.73949C34.3232 8.96119 34.8656 8.48949 35.125 8.11213C37.9552 4.07911 42.2949 2.92345 43.6392 2.56968C45.1486 2.19232 48.8279 1.29609 52.9788 3.01779C56.1628 4.33855 58.0496 6.50836 58.8515 7.61685C58.8515 7.61685 58.9694 7.73477 59.1109 7.87628C61.0684 9.83383 70.6439 19.9282 67.5071 27.4282C66.1864 30.5885 63.2618 32.6404 63.2618 32.6404C61.9882 33.3716 60.5967 34.0791 59.0873 34.7395C58.8043 34.8574 58.1675 35.1876 57.6486 35.447" stroke="#724632" stroke-width="3.55" stroke-linecap="round" stroke-linejoin="round"/>
<path d="M25.5493 33.348L30.6437 31.4141" stroke="#724632" stroke-width="3.55" stroke-linecap="round" stroke-linejoin="round"/>
<path d="M71.022 22.2393C73.3333 21.9327 77.0833 21.5318 79.3946 21.2016C83.5456 20.6356 87.7201 20.3525 91.8946 20.3525C93.0267 20.3525 94.7484 21.9563 95.5267 23.9846C97.154 28.2771 92.3191 33.0648 83.5691 44.6214C81.6588 47.145 79.9842 49.4327 78.522 51.4374C76.305 54.5271 74.6776 58.0176 73.7814 61.7205C73.5456 62.7346 73.3333 63.6544 73.1682 64.4563C71.5644 72.1922 71.305 78.8667 71.1163 84.362C71.0691 85.7535 70.7625 91.1072 71.8474 94.1969" stroke="#724632" stroke-width="3.55" stroke-linecap="round" stroke-linejoin="round"/>
<path d="M57.6724 35.4488V36.2742C57.6724 38.3025 58.6158 40.2601 60.3375 41.3922C60.5733 41.5337 60.8327 41.6752 61.1158 41.8167C61.4695 41.9582 62.4365 42.3827 63.8752 42.3591C67.1771 42.312 69.5592 40.0006 72.578 37.4771C74.5356 35.8497 77.3658 33.562 81.1158 30.9912" stroke="#724632" stroke-width="3.55" stroke-linecap="round" stroke-linejoin="round"/>
<path d="M77.4844 33.2767L69.3948 30.5645" stroke="#724632" stroke-width="3.55" stroke-linecap="round" stroke-linejoin="round"/>
</g>
<defs>
<clipPath id="clip0_436_6971">
<rect width="100" height="97.1226" fill="white" transform="translate(0.738281)"/>
</clipPath>
</defs>
</svg>
