<svg width="102" height="90" viewBox="0 0 102 90" fill="none" xmlns="http://www.w3.org/2000/svg">
<path d="M41.1845 21.7511V27.6855C41.1845 28.244 40.7191 28.7094 40.1606 28.7094H33.435V35.4351C33.435 35.9936 32.9695 36.459 32.411 36.459H26.4999C25.9414 36.459 25.4759 35.9936 25.4759 35.4351V28.7094H18.7503C18.1918 28.7094 17.7263 28.244 17.7263 27.6855V21.7511C17.7263 21.1926 18.1918 20.7271 18.7503 20.7271H25.4759V14.0015C25.4759 13.443 25.9414 12.9775 26.4999 12.9775H32.411C32.9695 12.9775 33.435 13.443 33.435 14.0015V20.7271H40.1606C40.7191 20.7271 41.1845 21.1926 41.1845 21.7511Z" stroke="#724632" stroke-width="3.55" stroke-linecap="round" stroke-linejoin="round"/>
<path d="M49.8416 46.7676C51.8429 47.1865 55.8923 48.3035 59.4529 51.7013" stroke="#724632" stroke-width="3.55" stroke-linecap="round" stroke-linejoin="round"/>
<path d="M58.1491 59.9166C52.0751 63.6401 46.3734 57.8454 42.5335 53.6099C40.2994 51.143 35.901 47.7686 37.0878 43.9753C38.042 40.9033 42.1379 39.9259 44.884 39.4139C51.5863 38.1572 61.2675 38.9485 65.8986 44.7665C66.2943 45.2785 66.6434 45.8137 66.9226 46.3955C67.4811 47.5359 67.6906 48.7228 67.5975 49.8398" stroke="#724632" stroke-width="3.55" stroke-linecap="round" stroke-linejoin="round"/>
<path d="M82.3296 25.7285C80.6773 26.0776 77.3493 27.0085 74.3938 29.8244" stroke="#724632" stroke-width="3.55" stroke-linecap="round" stroke-linejoin="round"/>
<path d="M67.6904 28.2899C67.5973 27.359 67.7602 26.4048 68.2257 25.4507C68.4584 24.962 68.7376 24.5198 69.0634 24.1009C72.8568 19.3069 80.8624 18.6087 86.3779 19.6327C88.6585 20.0516 92.033 20.8661 92.8242 23.3795C93.8016 26.4979 90.1945 29.2906 88.356 31.3385C85.191 34.8293 80.5133 39.6234 75.4865 36.5747" stroke="#724632" stroke-width="3.55" stroke-linecap="round" stroke-linejoin="round"/>
<path d="M79.3267 30.3378C77.0693 28.4295 74.4163 29.8258 74.4163 29.8258C73.6018 30.361 67.9467 34.1078 67.0391 41.3222" stroke="#724632" stroke-width="3.55" stroke-linecap="round" stroke-linejoin="round"/>
<path d="M84.0984 50.0041C85.4249 50.7023 87.1936 49.8878 87.3099 48.3518C87.4263 47.1417 86.542 45.9781 85.4482 45.4196C81.4919 43.4414 76.9306 47.3279 77.047 51.3772C77.1401 54.3793 79.4673 56.8461 82.2832 57.6141C87.3099 58.9872 90.9637 54.7284 93.4538 51.0048C97.1075 45.5592 99.4347 39.1361 100.04 32.5967C100.808 24.2653 98.434 15.8408 92.3134 9.9064C91.9644 9.58059 90.3819 8.06791 87.9616 6.50868C86.2394 5.39163 82.097 2.80843 76.3721 2.08699C68.9716 1.15611 63.2234 3.90221 60.3609 5.29854C56.1021 7.39302 53.1466 10.0228 51.3779 11.8147C49.3765 9.76677 45.5832 6.48541 39.9281 4.18148C35.6227 2.43608 30.9683 1.62155 26.3837 2.08699C20.2399 2.71534 14.9571 5.88034 10.4424 9.9064C0.225943 19.0756 0.481935 34.6213 6.41631 45.9781C9.60458 52.0521 14.515 56.7763 19.4487 61.4307C25.6157 67.2487 32.3181 72.3453 38.8575 77.6979C42.9302 81.0723 51.2615 88.0772 51.4477 88.0772C51.6339 88.0772 59.9653 81.0723 64.0612 77.6746C66.784 75.5336 68.4596 72.2988 68.6225 68.8312C68.669 67.8073 68.6225 66.7367 68.4829 65.5964C67.3425 56.8694 60.5006 52.3546 59.4999 51.7263C59.0577 51.4936 57.6614 50.8419 55.916 51.2143C54.7989 51.447 53.9844 51.9823 53.5422 52.3546" stroke="#724632" stroke-width="3.55" stroke-linecap="round" stroke-linejoin="round"/>
</svg>
