<svg width="100" height="98" viewBox="0 0 100 98" fill="none" xmlns="http://www.w3.org/2000/svg">
<path d="M50.2595 50.5423C48.467 51.8394 44.6698 55.4008 45.8727 58.113C46.934 60.4951 51.4387 61.2498 54.4812 59.5989C57.0519 58.2074 59.0566 54.8583 58.0189 52.0989C57.4764 50.6838 56.1085 49.3158 54.3868 49.08C52.6887 48.8206 51.3444 49.764 50.2595 50.5423Z" stroke="#3F4447" stroke-width="3" stroke-linecap="round" stroke-linejoin="round"/>
<path d="M50.2359 82.7344C48.4906 84.008 44.7878 87.475 45.967 90.1165C47.0048 92.4278 51.3916 93.1825 54.3633 91.5552C56.8868 90.1872 58.8208 86.9325 57.8067 84.2438C57.2878 82.8759 55.9435 81.5316 54.2689 81.2957C52.5944 81.0363 51.2972 81.9561 50.2359 82.7344Z" stroke="#3F4447" stroke-width="3" stroke-linecap="round" stroke-linejoin="round"/>
<path d="M47.9477 68.8192C46.1081 71.5315 46.1317 74.7862 48.0185 76.0598C49.5515 77.1211 52.1694 75.2815 54.7873 73.489C56.6034 72.239 57.6883 71.4607 57.8062 70.1636C57.9477 68.4655 56.2968 66.8145 54.7166 66.2485C52.2402 65.3287 49.3392 66.7673 47.9477 68.8192Z" stroke="#3F4447" stroke-width="3" stroke-linecap="round" stroke-linejoin="round"/>
<path d="M30.7319 22.168C28.4206 21.8614 25.2131 21.6019 22.9017 21.2953C18.7508 20.7293 14.5763 20.4463 10.4017 20.4463C9.26967 20.4463 7.54797 22.0501 6.76967 24.0784C5.14231 28.3708 9.97722 33.1586 18.7272 44.7152C20.6376 47.2387 22.3121 49.5265 23.7744 51.5312C25.9914 54.6208 27.6187 58.1114 28.515 61.8142C28.7508 62.8284 28.9631 63.7482 29.1282 64.5501C30.7319 72.2859 30.9914 78.9604 31.18 84.4557C31.2272 85.8472 31.18 92.4274 30.3074 94.2199" stroke="#3F4447" stroke-width="3" stroke-linecap="round" stroke-linejoin="round"/>
<path d="M29.9059 7.61816H6.91058C3.67945 7.61816 1.06152 10.3776 1.06152 13.7974V42.8776C1.06152 46.2738 3.67945 49.0568 6.91058 49.0568H17.1464" stroke="#3F4447" stroke-width="3" stroke-linecap="round" stroke-linejoin="round"/>
<path d="M72.689 7.61816H93.0663C96.2975 7.61816 98.9154 10.3776 98.9154 13.7974V42.8776C98.9154 46.2738 96.2975 49.0568 93.0663 49.0568H84.788" stroke="#3F4447" stroke-width="3" stroke-linecap="round" stroke-linejoin="round"/>
<path d="M6.91064 49.0322V96.0605" stroke="#3F4447" stroke-width="3" stroke-linecap="round" stroke-linejoin="round"/>
<path d="M44.6221 40.1645C44.6693 40.589 44.6929 41.2258 44.6221 41.9569C44.5514 42.9003 44.4806 43.655 44.174 44.1739C43.8202 44.7399 43.1127 44.9994 42.3108 45.0937C40.5655 45.306 38.8438 44.7164 37.5231 43.5607C34.3627 40.7541 26.8627 34.3154 21.1787 31.0371" stroke="#3F4447" stroke-width="3" stroke-linecap="round" stroke-linejoin="round"/>
<path d="M33.6086 10.9668C33.1605 13.7026 33.1133 16.9574 33.42 18.3253C34.1275 21.58 34.9294 22.3347 34.8586 24.2687C34.7879 26.014 33.7973 27.4762 32.7596 28.8677C32.5001 29.1979 32.6417 29.6932 33.0426 29.8347C33.4907 29.9998 34.1039 30.1649 34.67 30.3064C35.0001 30.3772 35.236 30.6838 35.2124 31.0376L35.0237 32.9715C35.0001 33.3489 35.1652 33.7262 35.4954 33.9149L36.3917 34.4809L36.1322 35.2592C36.0379 35.5423 36.0615 35.8489 36.203 36.1083L36.3917 36.4385C36.769 37.1225 36.6511 37.8772 36.7926 38.6319C36.8869 39.1743 37.1228 39.764 37.5001 40.1885C38.019 40.7781 38.9388 40.6366 39.4341 40.5894C40.9907 40.4479 42.7596 40.33 44.8586 40.1885" stroke="#3F4447" stroke-width="3" stroke-linecap="round" stroke-linejoin="round"/>
<path d="M36.3687 34.4814L37.2177 34.3398" stroke="#3F4447" stroke-width="3" stroke-linecap="round" stroke-linejoin="round"/>
<path d="M52.1226 2.4758C55.8726 0.282404 60.5895 0.801272 64.2216 2.99467C69.4103 6.15505 72.7122 13.8437 67.1461 18.3956C66.9103 18.5843 66.6509 18.773 66.3914 18.9381" stroke="#3F4447" stroke-width="3" stroke-linecap="round" stroke-linejoin="round"/>
<path d="M52.1934 38.8904C52.5 38.7961 53.3962 38.4659 53.9151 37.5697C54.7877 36.131 53.9622 34.5272 53.8679 34.3621C53.0896 32.8999 51.6509 32.9234 50.5188 32.1216C47.2405 29.8338 50.9198 23.914 48.1368 19.9518C45.4717 16.1546 39.2452 17.4753 35.1415 13.3008C34.5754 12.7112 33.2075 11.2961 33.4669 9.73949C33.5849 8.96119 34.1273 8.48949 34.3868 8.11213C37.2169 4.07911 41.5566 2.92345 42.9009 2.56968C44.4103 2.19232 48.0896 1.29609 52.2405 3.01779C55.4245 4.33855 57.3113 6.50836 58.1132 7.61685C58.1132 7.61685 58.2311 7.73477 58.3726 7.87628C60.3302 9.83383 69.9056 19.9282 66.7688 27.4282C65.4481 30.5885 62.5236 32.6404 62.5236 32.6404C61.25 33.3716 59.8585 34.0791 58.349 34.7395C58.066 34.8574 57.4292 35.1876 56.9103 35.447" stroke="#3F4447" stroke-width="3" stroke-linecap="round" stroke-linejoin="round"/>
<path d="M24.811 33.348L29.9054 31.4141" stroke="#3F4447" stroke-width="3" stroke-linecap="round" stroke-linejoin="round"/>
<path d="M70.2837 22.2393C72.595 21.9327 76.345 21.5318 78.6563 21.2016C82.8073 20.6356 86.9818 20.3525 91.1563 20.3525C92.2884 20.3525 94.0101 21.9563 94.7884 23.9846C96.4158 28.2771 91.5809 33.0648 82.8309 44.6214C80.9205 47.145 79.246 49.4327 77.7837 51.4374C75.5667 54.5271 73.9394 58.0176 73.0431 61.7205C72.8073 62.7346 72.595 63.6544 72.4299 64.4563C70.8261 72.1922 70.5667 78.8667 70.378 84.362C70.3309 85.7535 70.0243 91.1072 71.1092 94.1969" stroke="#3F4447" stroke-width="3" stroke-linecap="round" stroke-linejoin="round"/>
<path d="M56.9341 35.4488V36.2742C56.9341 38.3025 57.8775 40.2601 59.5992 41.3922C59.835 41.5337 60.0945 41.6752 60.3775 41.8167C60.7313 41.9582 61.6982 42.3827 63.1369 42.3591C66.4388 42.312 68.8209 40.0006 71.8397 37.4771C73.7973 35.8497 76.6275 33.562 80.3775 30.9912" stroke="#3F4447" stroke-width="3" stroke-linecap="round" stroke-linejoin="round"/>
<path d="M76.7461 33.2767L68.6565 30.5645" stroke="#3F4447" stroke-width="3" stroke-linecap="round" stroke-linejoin="round"/>
</svg>
