<svg width="102" height="100" viewBox="0 0 102 100" fill="none" xmlns="http://www.w3.org/2000/svg">
<g clip-path="url(#clip0_178_1312)">
<path d="M8.77167 22.8086H5.26123V26.319H8.77167V22.8086Z" fill="#505050"/>
<path d="M8.77167 15.791H5.26123V19.2978H8.77167V15.791Z" fill="#505050"/>
<path d="M38.5959 14.0352H35.0854V17.5456H38.5959V14.0352Z" fill="#505050"/>
<path d="M38.5959 7.01855H35.0854V10.529H38.5959V7.01855Z" fill="#505050"/>
<path d="M38.5959 0.000976562H35.0854V3.51141H38.5959V0.000976562Z" fill="#505050"/>
<path d="M63.1552 8.77344H59.6484V12.2802H63.1552V8.77344Z" fill="#505050"/>
<path d="M63.1552 1.75586H59.6484V5.26265H63.1552V1.75586Z" fill="#505050"/>
<path d="M94.7341 19.2969H91.2273V22.8073H94.7341V19.2969Z" fill="#505050"/>
<path d="M94.7341 12.2803H91.2273V15.7907H94.7341V12.2803Z" fill="#505050"/>
<path d="M94.7341 5.2627H91.2273V8.77313H94.7341V5.2627Z" fill="#505050"/>
<path d="M63.8881 66.6652H57.8853V63.1548H63.8881C66.2928 63.1548 68.3217 61.2463 68.4129 58.9072C68.4348 58.3927 68.3983 57.9621 68.3108 57.5899C67.5116 54.2582 65.2127 50.0946 61.6548 45.5515C59.0676 42.2454 55.1375 40.3515 50.8754 40.3515C46.6132 40.3515 42.6831 42.249 40.0959 45.5515C36.538 50.0983 34.2391 54.2582 33.4399 57.5935C33.3524 57.9657 33.3159 58.3963 33.3378 58.9072C33.429 61.2499 35.4579 63.1584 37.8627 63.1584H45.6133C47.5474 63.1584 49.1238 61.5856 49.1238 59.648V51.2915C49.1238 50.9047 48.5107 50.7588 48.3356 51.1091L44.9419 57.8964H36.8409V54.386H42.7743L45.1974 49.5363C45.8688 48.1971 47.2117 47.3687 48.7078 47.3687C50.8717 47.3687 52.6306 49.1276 52.6306 51.2915V59.648C52.6306 63.5197 49.485 66.6652 45.6133 66.6652H37.8627C33.5275 66.6652 29.9988 63.319 29.831 59.0459C29.7981 58.2066 29.8602 57.4658 30.028 56.7761C30.9549 52.9044 33.4144 48.4014 37.3335 43.3912C40.5885 39.2312 45.5258 36.8447 50.8754 36.8447C56.2249 36.8447 61.1622 39.2312 64.4172 43.3912C68.34 48.4014 70.7958 52.9044 71.7227 56.7761C71.8869 57.4694 71.9526 58.2102 71.9197 59.0495C71.7519 63.319 68.2268 66.6688 63.8881 66.6688V66.6652Z" fill="#505050"/>
<path d="M59.648 66.6656H56.1376C52.2659 66.6656 49.1204 63.5201 49.1204 59.6484V51.2919C49.1204 49.128 50.8792 47.3691 53.0431 47.3691C54.5356 47.3691 55.8785 48.2011 56.5499 49.5367L58.9766 54.3864H64.91V57.8968H56.809L53.4154 51.1095C53.2438 50.7665 52.6308 50.9088 52.6308 51.2956V59.652C52.6308 61.586 54.2036 63.1625 56.1412 63.1625H59.6517V66.6729L59.648 66.6656Z" fill="#505050"/>
<path d="M50.8756 40.3521C45.0698 40.3521 40.3479 35.6266 40.3479 29.8208V26.3104C40.3479 20.5083 45.0698 15.79 50.8756 15.79C56.6813 15.79 61.4032 20.5083 61.4032 26.3104V29.8208C61.4032 35.6266 56.6813 40.3521 50.8756 40.3521ZM50.8756 19.2968C47.0039 19.2968 43.8583 22.4424 43.8583 26.3104V29.8208C43.8583 33.6925 47.0039 36.8417 50.8756 36.8417C54.7473 36.8417 57.8928 33.6925 57.8928 29.8208V26.3104C57.8928 22.4424 54.7473 19.2968 50.8756 19.2968Z" fill="#505050"/>
<path d="M63.1366 92.9831H56.1558C52.2768 92.9831 49.1204 89.8267 49.1204 85.9477H52.6308C52.6308 87.8926 54.2145 89.4764 56.1595 89.4764H63.1402C64.1547 89.4764 65.1253 89.0385 65.7931 88.2722C66.4645 87.5095 66.7711 86.4914 66.6361 85.4842L62.7534 65.2171L66.2018 64.5566L70.1027 84.9186C70.3873 87.0278 69.7743 89.0531 68.4387 90.582C67.1031 92.1074 65.1728 92.9831 63.1439 92.9831H63.1366Z" fill="#505050"/>
<path d="M45.6133 92.9831H38.6143C36.5854 92.9831 34.655 92.1074 33.3195 90.582C31.9839 89.0567 31.3709 87.0278 31.6409 85.0172L35.5491 64.5566L38.9975 65.2135L35.1039 85.5791C34.9835 86.4914 35.29 87.5058 35.9614 88.2722C36.6329 89.0385 37.5999 89.4764 38.6143 89.4764H45.6133C47.5473 89.4764 49.1237 87.9036 49.1237 85.9659V75.4383H52.6342V85.9659C52.6342 89.8376 49.4886 92.9831 45.6169 92.9831H45.6133Z" fill="#505050"/>
<path d="M80.7068 99.9999H21.0439C19.8799 99.9999 18.7961 99.4233 18.1466 98.46C17.497 97.4966 17.362 96.2778 17.7962 95.1977L26.9226 72.3762C27.4591 71.037 28.7362 70.1758 30.174 70.1758H35.925V73.6862H30.174L21.0512 96.5041L80.7068 96.4931L71.5694 73.6826H65.8184V70.1794H71.5767C73.0145 70.1794 74.2916 71.0443 74.8281 72.3798L83.9581 95.205C84.3887 96.2851 84.2573 97.5039 83.6078 98.4673C82.9546 99.4306 81.8708 100.007 80.7104 100.007L80.7068 99.9999Z" fill="#505050"/>
<path d="M28.0684 47.3698H14.8915C11.5161 47.3698 8.76831 44.622 8.76831 41.2466C8.76831 40.4109 8.93617 39.6008 9.26459 38.8345L11.4103 33.828C13.3662 29.2666 17.8363 26.3145 22.8028 26.3145C27.7692 26.3145 32.2393 29.2629 34.1989 33.828L35.8045 37.5792L32.5787 38.9586L30.9731 35.2073C29.5682 31.9341 26.3643 29.8212 22.8028 29.8212C19.2412 29.8212 16.0337 31.9341 14.6324 35.2073L12.4867 40.2139C12.3481 40.5387 12.2751 40.8853 12.2751 41.2429C12.2751 42.6843 13.4465 43.8557 14.8879 43.8557H28.0648V47.3661L28.0684 47.3698Z" fill="#505050"/>
<path d="M22.8065 29.8242C18.9348 29.8242 15.7893 26.6787 15.7893 22.807V19.2965C15.7893 15.4248 18.9348 12.2793 22.8065 12.2793C26.6782 12.2793 29.8238 15.4248 29.8238 19.2965V22.807C29.8238 26.6787 26.6782 29.8242 22.8065 29.8242ZM22.8065 15.7897C20.8725 15.7897 19.2961 17.3625 19.2961 19.3002V22.8106C19.2961 24.7446 20.8689 26.321 22.8065 26.321C24.7442 26.321 26.317 24.7483 26.317 22.8106V19.3002C26.317 17.3661 24.7442 15.7897 22.8065 15.7897Z" fill="#505050"/>
<path d="M78.9442 29.8242C75.0725 29.8242 71.927 26.6787 71.927 22.807V19.2965C71.927 15.4248 75.0725 12.2793 78.9442 12.2793C82.8159 12.2793 85.9615 15.4248 85.9615 19.2965V22.807C85.9615 26.6787 82.8159 29.8242 78.9442 29.8242ZM78.9442 15.7897C77.0102 15.7897 75.4338 17.3625 75.4338 19.3002V22.8106C75.4338 24.7446 77.0066 26.321 78.9442 26.321C80.8819 26.321 82.4547 24.7483 82.4547 22.8106V19.3002C82.4547 17.3661 80.8819 15.7897 78.9442 15.7897Z" fill="#505050"/>
<path d="M24.5619 38.5967H21.0515V45.6139H24.5619V38.5967Z" fill="#505050"/>
<path d="M24.5619 52.6318H21.0515V63.1595H24.5619V52.6318Z" fill="#505050"/>
<path d="M28.0687 64.9107H17.5411C14.64 64.9107 12.2791 62.5497 12.2791 59.6487V45.5303H15.7895V59.6487C15.7895 60.6157 16.5777 61.4039 17.5447 61.4039H28.0724V64.9143L28.0687 64.9107Z" fill="#505050"/>
<path d="M22.8066 71.9313H3.51378C2.34607 71.9313 1.26228 71.3547 0.605446 70.3877C-0.0513923 69.4207 -0.18276 68.1983 0.247834 67.1108L5.86015 53.08C6.39292 51.7408 7.67376 50.876 9.11515 50.876H14.0305V54.3864H9.11515L3.50648 68.4136L22.8029 68.4209V71.9313H22.8066Z" fill="#505050"/>
<path d="M86.8591 47.3698H73.6822V43.8593H86.8591C88.3005 43.8593 89.4719 42.688 89.4719 41.2466C89.4719 40.889 89.4025 40.5423 89.2602 40.2175L87.1145 35.211C85.7133 31.9377 82.5057 29.8212 78.9442 29.8212C75.3827 29.8212 72.1751 31.9341 70.7739 35.2073L69.1865 38.9148L65.9607 37.5354L67.5481 33.828C69.504 29.2629 73.9778 26.3145 78.9442 26.3145C83.9106 26.3145 88.3808 29.2629 90.3367 33.828L92.4824 38.8309C92.8108 39.5972 92.9786 40.4073 92.9786 41.2429C92.9786 44.6183 90.2309 47.3661 86.8555 47.3661L86.8591 47.3698Z" fill="#505050"/>
<path d="M80.7031 38.5967H77.1926V45.6139H80.7031V38.5967Z" fill="#505050"/>
<path d="M80.7031 52.6318H77.1926V63.1595H80.7031V52.6318Z" fill="#505050"/>
<path d="M84.21 64.9104H73.6824V61.4H84.21C85.177 61.4 85.9653 60.6154 85.9653 59.6447V45.5264H89.4757V59.6447C89.4757 62.5458 87.1147 64.9067 84.2137 64.9067L84.21 64.9104Z" fill="#505050"/>
<path d="M98.2374 71.9313H78.9446V68.4209H98.2374L92.6287 54.3828H87.717V50.876H92.6324C94.0738 50.876 95.3509 51.7408 95.8874 53.08L101.5 67.1108C101.934 68.1983 101.799 69.4207 101.142 70.3877C100.489 71.3511 99.4015 71.9313 98.2337 71.9313H98.2374Z" fill="#505050"/>
</g>
<defs>
<clipPath id="clip0_178_1312">
<rect width="101.752" height="100" fill="white"/>
</clipPath>
</defs>
</svg>
